<svg width="58" height="58" viewBox="0 0 58 58" fill="none" xmlns="http://www.w3.org/2000/svg">
<path d="M20.8589 26.8352C26.5499 26.8352 31.1633 22.2218 31.1633 16.5308C31.1633 10.8398 26.5499 6.22632 20.8589 6.22632C15.1679 6.22632 10.5544 10.8398 10.5544 16.5308C10.5544 22.2218 15.1679 26.8352 20.8589 26.8352Z" stroke="white" stroke-linecap="round" stroke-linejoin="round"/>
<path d="M2.31091 55.6876H39.4069V53.4532C39.3741 50.3116 38.5456 47.2293 36.9987 44.4949C35.4518 41.7601 33.237 39.4622 30.5613 37.8156C27.8855 36.169 24.8361 35.2274 21.6978 35.0788C21.418 35.0656 21.1383 35.0587 20.8589 35.0581C20.5795 35.0587 20.2998 35.0656 20.0201 35.0788C16.8818 35.2274 13.8323 36.169 11.1565 37.8156C8.4808 39.4622 6.26605 41.7601 4.71915 44.4949C3.17227 47.2293 2.34373 50.3116 2.31091 53.4532V55.6876Z" stroke="white" stroke-linecap="round" stroke-linejoin="round"/>
<path d="M37.3461 26.8352C43.037 26.8352 47.6505 22.2218 47.6505 16.5308C47.6505 10.8398 43.037 6.22632 37.3461 6.22632" stroke="white" stroke-linecap="round" stroke-linejoin="round"/>
<path d="M47.6505 55.6881H55.8941V53.4533C55.8611 50.3117 55.0326 47.2294 53.4857 44.495C51.9388 41.7602 49.7242 39.4624 47.0483 37.8158C45.3188 36.7514 43.4327 35.9816 41.4678 35.5302" stroke="white" stroke-linecap="round" stroke-linejoin="round"/>
</svg>
