<svg width="60" height="60" viewBox="0 0 60 60" fill="none" xmlns="http://www.w3.org/2000/svg">
<rect width="60" height="60" rx="5" fill="#027BFF"/>
<path d="M17.7177 21.868L17.6637 20.248L25.2957 12.4H26.8257L21.2637 18.232L20.5077 19.042L17.7177 21.868ZM16.5657 25V12.4H17.8977V25H16.5657ZM25.6197 25L20.1837 18.736L21.0837 17.764L27.2037 25H25.6197ZM29.3625 25V12.4H34.0785C35.1465 12.4 36.0645 12.574 36.8325 12.922C37.6005 13.258 38.1885 13.75 38.5965 14.398C39.0165 15.034 39.2265 15.808 39.2265 16.72C39.2265 17.608 39.0165 18.376 38.5965 19.024C38.1885 19.66 37.6005 20.152 36.8325 20.5C36.0645 20.848 35.1465 21.022 34.0785 21.022H30.1005L30.6945 20.392V25H29.3625ZM30.6945 20.5L30.1005 19.852H34.0425C35.3025 19.852 36.2565 19.582 36.9045 19.042C37.5645 18.49 37.8945 17.716 37.8945 16.72C37.8945 15.712 37.5645 14.932 36.9045 14.38C36.2565 13.828 35.3025 13.552 34.0425 13.552H30.1005L30.6945 12.922V20.5ZM42.1067 25V12.4H43.4387V25H42.1067ZM5.39477 47V34.4H10.5248C11.8688 34.4 13.0448 34.67 14.0528 35.21C15.0728 35.738 15.8648 36.476 16.4288 37.424C16.9928 38.372 17.2748 39.464 17.2748 40.7C17.2748 41.936 16.9928 43.028 16.4288 43.976C15.8648 44.924 15.0728 45.668 14.0528 46.208C13.0448 46.736 11.8688 47 10.5248 47H5.39477ZM6.72677 45.848H10.4528C11.5688 45.848 12.5348 45.632 13.3508 45.2C14.1788 44.756 14.8208 44.15 15.2768 43.382C15.7328 42.602 15.9608 41.708 15.9608 40.7C15.9608 39.68 15.7328 38.786 15.2768 38.018C14.8208 37.25 14.1788 36.65 13.3508 36.218C12.5348 35.774 11.5688 35.552 10.4528 35.552H6.72677V45.848ZM18.0741 47L23.8341 34.4H25.1481L30.9081 47H29.5041L24.2121 35.174H24.7521L19.4601 47H18.0741ZM20.3421 43.634L20.7381 42.554H28.0641L28.4601 43.634H20.3421ZM36.4664 47.108C35.5304 47.108 34.6304 46.958 33.7664 46.658C32.9144 46.346 32.2544 45.95 31.7864 45.47L32.3084 44.444C32.7524 44.876 33.3464 45.242 34.0904 45.542C34.8464 45.83 35.6384 45.974 36.4664 45.974C37.2584 45.974 37.9004 45.878 38.3924 45.686C38.8964 45.482 39.2624 45.212 39.4904 44.876C39.7304 44.54 39.8504 44.168 39.8504 43.76C39.8504 43.268 39.7064 42.872 39.4184 42.572C39.1424 42.272 38.7764 42.038 38.3204 41.87C37.8644 41.69 37.3604 41.534 36.8084 41.402C36.2564 41.27 35.7044 41.132 35.1524 40.988C34.6004 40.832 34.0904 40.628 33.6224 40.376C33.1664 40.124 32.7944 39.794 32.5064 39.386C32.2304 38.966 32.0924 38.42 32.0924 37.748C32.0924 37.124 32.2544 36.554 32.5784 36.038C32.9144 35.51 33.4244 35.09 34.1084 34.778C34.7924 34.454 35.6684 34.292 36.7364 34.292C37.4444 34.292 38.1464 34.394 38.8424 34.598C39.5384 34.79 40.1384 35.06 40.6424 35.408L40.1924 36.47C39.6524 36.11 39.0764 35.846 38.4644 35.678C37.8644 35.51 37.2824 35.426 36.7184 35.426C35.9624 35.426 35.3384 35.528 34.8464 35.732C34.3544 35.936 33.9884 36.212 33.7484 36.56C33.5204 36.896 33.4064 37.28 33.4064 37.712C33.4064 38.204 33.5444 38.6 33.8204 38.9C34.1084 39.2 34.4804 39.434 34.9364 39.602C35.4044 39.77 35.9144 39.92 36.4664 40.052C37.0184 40.184 37.5644 40.328 38.1044 40.484C38.6564 40.64 39.1604 40.844 39.6164 41.096C40.0844 41.336 40.4564 41.66 40.7324 42.068C41.0204 42.476 41.1644 43.01 41.1644 43.67C41.1644 44.282 40.9964 44.852 40.6604 45.38C40.3244 45.896 39.8084 46.316 39.1124 46.64C38.4284 46.952 37.5464 47.108 36.4664 47.108ZM53.2826 34.4H54.5966V47H53.2826V34.4ZM45.3986 47H44.0666V34.4H45.3986V47ZM53.4086 41.186H45.2546V40.016H53.4086V41.186Z" fill="white"/>
</svg>
